<svg id="Layer_1" data-name="Layer 1" xmlns="http://www.w3.org/2000/svg" viewBox="0 0 12 6"><defs><style>.cls-1{fill:#343434;fill-rule:evenodd;}</style></defs><path class="cls-1" d="M3,1A2,2,0,0,0,1,3a2,2,0,0,0,.59,1.41,1.88,1.88,0,0,0,.64.44A2.07,2.07,0,0,0,3,5H4.5a.5.5,0,0,1,0,1H3a3.06,3.06,0,0,1-1.15-.23A3,3,0,0,1,3,0H4.5A.5.5,0,0,1,5,.5a.5.5,0,0,1-.5.5ZM7,.5A.5.5,0,0,1,7.5,0H9a3.06,3.06,0,0,1,1.15.23,3,3,0,0,1,1.62,1.62,3,3,0,0,1,0,2.3,3,3,0,0,1-1.62,1.62A3.06,3.06,0,0,1,9,6H7.5a.5.5,0,0,1,0-1H9a2.07,2.07,0,0,0,.77-.15,1.88,1.88,0,0,0,.64-.44,1.88,1.88,0,0,0,.44-.64,2.05,2.05,0,0,0,0-1.54,1.88,1.88,0,0,0-.44-.64,1.88,1.88,0,0,0-.64-.44A2.07,2.07,0,0,0,9,1H7.5A.5.5,0,0,1,7,.5Z"/><path class="cls-1" d="M3.5,3A.5.5,0,0,1,4,2.5H8a.5.5,0,0,1,0,1H4A.5.5,0,0,1,3.5,3Z"/></svg>