<svg id="Layer_1" data-name="Layer 1" xmlns="http://www.w3.org/2000/svg" viewBox="0 0 29.81 16.71"><defs><style>.cls-1{fill:#12110f;}.cls-2{fill:#df1c4b;}</style></defs><path class="cls-1" d="M24.39.7a1,1,0,0,1,.25.79l-.47,1.67H22.43c.09-.4.22-.77.3-1.18a.38.38,0,0,0,0-.21,1.22,1.22,0,0,0-1.21-.27,2.11,2.11,0,0,0-1.27,1.18l-.2.48L19,6.83c-.11.35-.27.79,0,1.12a1.64,1.64,0,0,0,1.78.34c.16-.06.36-.09.45-.23.16-.58.35-1.17.5-1.75l0,0H20.38l.43-1.56,0,0s0,0,0,0h2.9l0,.13L22.34,9.49a7.06,7.06,0,0,1-4.56,0A2.15,2.15,0,0,1,17,7.29l.11-.47,1.18-4A3.74,3.74,0,0,1,20.44.17a6.5,6.5,0,0,1,3.28.09A1.77,1.77,0,0,1,24.39.7Z"/><path class="cls-1" d="M9.72,2.25a.86.86,0,0,1,.21.84L9.45,4.72c-.61,0-1.19,0-1.78,0,.09-.35.21-.69.3-1a.6.6,0,0,0-.31-.54,1,1,0,0,0-1.12.18,1.7,1.7,0,0,0-.62,1.36.88.88,0,0,0,.23.52c.57.54,1.19,1,1.79,1.57A1.65,1.65,0,0,1,8.35,8.2a3.57,3.57,0,0,1-1.91,2.92,4.44,4.44,0,0,1-3.52.15,1.58,1.58,0,0,1-.8-1.57c.1-.55.3-1.06.43-1.59H4.34c-.07.53-.58,1.24,0,1.68a1.17,1.17,0,0,0,1.23-.1,2.21,2.21,0,0,0,.8-1.35c.06-.54-.53-.72-.81-1.07C5,6.61,3.93,6.17,3.89,5.16a4.31,4.31,0,0,1,1-2.7,4,4,0,0,1,4.19-.64A2,2,0,0,1,9.72,2.25Z"/><path class="cls-1" d="M13,3.29l0,0L11.11,9.62l0,0c.54,0,1.07,0,1.65,0a1,1,0,0,0,.5-.32,6.53,6.53,0,0,0,.49-1.43l1-3.43a1.09,1.09,0,0,0,.07-.71.73.73,0,0,0-.53-.45Zm1.77-1.55a2,2,0,0,1,1.78,1,3.21,3.21,0,0,1,0,2.14L15.06,9.79a2.32,2.32,0,0,1-2.13,1.49H8.76l0-.12,1.17-4,1.57-5.39Z"/><path class="cls-1" d="M29.81,4.68c-.13.53-.3,1.06-.46,1.6-1,0-1.88,0-2.81,0-.23.73-.45,1.47-.65,2.22l0,0h2.62v0c-.17.55-.32,1.13-.5,1.69H25.4c-.28.85-.51,1.68-.75,2.52v0c1,0,2,0,3,0l-.46,1.63-.36,0H22.25l0-.19,1.45-5L25,4.69h4.78Z"/><path class="cls-2" d="M20.83,14.79a3,3,0,0,1-2.35,1.88l-.6,0H0l1.29-4.35c.86,0,18.14,0,18.14,0a3,3,0,0,0,2.63-1.92Z"/></svg>